<svg version="1.2" xmlns="http://www.w3.org/2000/svg" viewBox="0 0 465 130" width="465" height="130">
	<title>ds-logo</title>
	<style>
		.s0 { fill: #f37021 } 
		.s1 { fill: #000000 } 
	</style>
	<path fill-rule="evenodd" class="s0" d="m409.3 109.5v-56.5c0-1.9 0-7.9 5.2-7.9 5.3 0 5.3 4.9 5.3 7.9v56.5h22.7v-66.6c0-9.8-5.5-17.6-16.2-17.6-8.9 0-13.4 3.9-17.5 10.9h-0.3v-9.2h-21.9v82.5z"/>
	<path fill-rule="evenodd" class="s0" d="m379.4 27v82.5h-21.9v-9.2h-0.3c-4.1 7-8.6 10.9-17.5 10.9-10.8 0-16.2-7.8-16.2-17.6v-66.6h22.7v56.5c0 3 0 7.9 5.2 7.9 5.3 0 5.3-5.9 5.3-7.9v-56.5z"/>
	<path fill-rule="evenodd" class="s0" d="m266 89.1v-5.4h20.3v5c0 3.2 0.9 7.4 6 7.4 3.5 0 5-2.3 5-6.1 0-6.6-8-10.7-15.4-16.4-7.3-5.6-15.1-12.4-15.1-24.6 0-15.5 10.4-23.7 25.5-23.7 15.7 0 25.2 6.5 25.2 21.6v4.4h-20.3v-4.4c0-2.1-0.1-6.5-4.9-6.5-3.3 0-5.2 1.8-5.2 5.6 0 6.6 9 10.5 15.8 16.3 7.7 5.9 15.5 12 15.5 24.7 0 6.7-1.5 24.2-26.2 24.2-20.2 0-26.2-8.6-26.2-22.1z"/>
	<path fill-rule="evenodd" class="s1" d="m204.9 124.5c9.8 0 15-1.7 18.6-5.2 3.6-3.4 5.4-8.8 7-16.7l14.9-75.6h-22.4l-5.8 58.1h-0.3l-5.6-58.1h-23.4l13.9 69.3c0.8 3.8 1.5 7.5 1.5 9.3 0 2.5-1.7 3-3.9 3h-5.2v15.9z"/>
	<path fill-rule="evenodd" class="s1" d="m160.7 6.3h22.7v103.2h-22.7z"/>
	<path fill-rule="evenodd" class="s1" d="m130.5 27h22.7v82.5h-22.7z"/>
	<path fill-rule="evenodd" class="s1" d="m130.5 6.3h22.7v15.1h-22.7z"/>
	<path fill-rule="evenodd" class="s1" d="m121.4 51.1v58.5h-20.8v-6.3h-0.3c-3.5 5-10 8-16.3 8-16.6 0-18.5-11.8-18.5-25.1 0-15.5 8.9-20.7 17.1-24.4 8.5-3.5 16.9-5.4 16.9-14.3 0-4.4-1-6.8-5.3-6.8-4.3 0-6 2.2-6 5.7v6.7h-21v-7.5c0-12.2 11-20 26.7-20 20.5-0.3 27.5 7.6 27.5 25.5zm-21.9 39.3v-22.3l-6.5 4.5c-2.7 1.9-4 4.1-4 7.4v11c0 4.7 1.9 6.6 5 6.6 3.8 0 5.5-3.2 5.5-7.2z"/>
	<path fill-rule="evenodd" class="s1" d="m58.4 6.3v103.2h-22.7v-8.3h-0.3c-2.8 6.3-8.6 10-16.1 10-10.6 0-16.9-9.1-16.9-24.6v-40.5c0-13.1 5.5-20.8 16.5-20.8 8.2 0 13 2.9 16.5 9h0.3v-28zm-22.7 74.8v-28.6c0-5-1.1-10.5-6-10.5-2.1 0-4.5 1.7-4.5 5v42c0 4.3 2.3 5.4 4.5 5.4 6 0.1 6-7.7 6-13.3z"/>
	<g>
		<path class="s1" d="m201.4 8.5h-4.7v13h-3.8v-13h-4.6v-3h13.1z"/>
		<path class="s1" d="m210.4 15.8h-2v5.6h-3.8v-15.9h6.1c1.9 0 3.3 0.4 4.4 1.3 1 0.8 1.6 2 1.6 3.6 0 1.1-0.2 2-0.7 2.8q-0.6 1.1-2.1 1.8l3.3 6.4v0.2h-4zm-2.1-3h2.4c0.7 0 1.3-0.2 1.6-0.6 0.4-0.4 0.5-0.9 0.5-1.6 0-0.7-0.2-1.2-0.5-1.6-0.4-0.4-0.9-0.6-1.6-0.6h-2.4z"/>
		<path class="s1" d="m232.8 5.5v10.4c0 1.2-0.3 2.2-0.7 3.1-0.5 0.9-1.2 1.5-2.1 2-0.9 0.5-2 0.7-3.3 0.7q-2.8 0-4.5-1.5c-1.1-1-1.6-2.4-1.7-4.1v-10.6h3.8v10.6c0 1.7 0.8 2.6 2.4 2.6 0.8 0 1.4-0.2 1.8-0.7q0.6-0.6 0.6-2.1v-10.4z"/>
		<path class="s1" d="m246.5 14.7h-5.9v3.8h7v3h-10.8v-16h10.8v3h-7v3.4h5.9z"/>
		<path class="s1" d="m266.7 18.5h-5.2l-0.9 3h-4l5.7-15.9h3.5l5.8 15.9h-4.1zm-4.3-3h3.4l-1.7-5.5z"/>
		<path class="s1" d="m287.5 21.4h-3.8l-5.5-9.9v9.9h-3.8v-15.9h3.8l5.5 9.9v-9.9h3.8z"/>
		<path class="s1" d="m291.5 21.4v-15.9h5c1.4 0 2.6 0.3 3.7 1 1.1 0.7 2 1.5 2.6 2.7q0.9 1.8 0.9 3.9v0.7q0 2.2-0.9 3.9c-0.6 1.1-1.5 2.1-2.6 2.7-1.1 0.6-2.3 1-3.7 1zm3.7-12.9v10h1.3c1.1 0 1.9-0.4 2.5-1.2 0.6-0.8 0.9-2 0.9-3.5v-0.7c0-1.5-0.3-2.7-0.9-3.5-0.6-0.8-1.4-1.2-2.5-1.2z"/>
		<path class="s1" d="m318.4 21.4h-3.8v-15.9h3.8z"/>
		<path class="s1" d="m327.6 5.5l3.5 11.1 3.5-11.1h5v15.9h-3.8v-3.7l0.4-7.6-3.8 11.3h-2.5l-3.8-11.3 0.4 7.6v3.7h-3.8v-15.9z"/>
		<path class="s1" d="m347.3 16v5.4h-3.8v-15.9h6.2c1.2 0 2.3 0.2 3.2 0.7 0.9 0.4 1.6 1.1 2.1 1.9 0.5 0.8 0.8 1.8 0.8 2.8 0 1.6-0.5 2.8-1.6 3.7-1.1 0.9-2.6 1.4-4.5 1.4zm0-2.9h2.5c0.7 0 1.3-0.2 1.7-0.6 0.4-0.4 0.6-0.9 0.6-1.6q0-1.1-0.6-1.8c-0.4-0.4-0.9-0.7-1.6-0.7h-2.5v4.7z"/>
		<path class="s1" d="m366.5 18.5h-5.2l-0.9 3h-4l5.7-15.9h3.5l5.8 15.9h-4.1zm-4.3-3h3.4l-1.7-5.5z"/>
		<path class="s1" d="m380 15.8h-2v5.6h-3.8v-15.9h6.2c1.8 0 3.3 0.4 4.3 1.3 1 0.8 1.6 2 1.6 3.6 0 1.1-0.2 2-0.7 2.8q-0.6 1.1-2.1 1.8l3.3 6.4v0.2h-4zm-2-3h2.4c0.7 0 1.3-0.2 1.6-0.6 0.4-0.4 0.5-0.9 0.5-1.6 0-0.7-0.2-1.2-0.5-1.6-0.4-0.4-0.9-0.6-1.6-0.6h-2.4z"/>
		<path class="s1" d="m401.9 8.5h-4.7v13h-3.8v-13h-4.6v-3h13.1z"/>
		<path class="s1" d="m409.1 21.4h-3.8v-15.9h3.8z"/>
		<path class="s1" d="m422.4 18.5h-5.2l-0.9 3h-4l5.7-15.9h3.5l5.8 15.9h-4zm-4.2-3h3.4l-1.7-5.5z"/>
		<path class="s1" d="m433.9 18.5h6.6v3h-10.3v-16h3.8v13z"/>
	</g>
</svg>